<svg data-v-6805eed4="" version="1.0" xmlns="http://www.w3.org/2000/svg" xmlns:xlink="http://www.w3.org/1999/xlink"
    width="100%" height="100%" viewBox="0 0 340.000000 250.000000" preserveAspectRatio="xMidYMid meet"
    color-interpolation-filters="sRGB" style="margin: auto;">
    <rect data-v-6805eed4="" x="0" y="0" width="100%" height="100%" fill="#fff" fill-opacity="1" class="background">
    </rect>
    <g data-v-6805eed4="" fill="#333" class="icon-text-wrapper icon-svg-group iconsvg"
        transform="translate(76.02385711669922,95)">
        <g class="iconsvg-imagesvg" transform="translate(0,0)">
            <g>
                <rect fill="#333" fill-opacity="0" stroke-width="2" x="0" y="0" width="60" height="60"
                    class="image-rect"></rect> <svg x="0" y="0" width="60" height="60" filtersec="colorsb3835829003"
                    class="image-svg-svg primary" style="overflow: visible;"><svg xmlns="http://www.w3.org/2000/svg"
                        viewBox="-0.00009538857557345182 -0.00016837329894769937 100.00018310546875 100.00025939941406">
                        <path
                            d="M51.63 29.83A85.86 85.86 0 0 1 97 32.93a50.11 50.11 0 0 0-11.77-18.4 35.57 35.57 0 0 0-33.61 15.3zM66.91 38.39A46.11 46.11 0 0 1 95 71.86 49.89 49.89 0 0 0 100 50c0-1.71-.09-3.4-.25-5.07a73.35 73.35 0 0 0-32.84-6.54z"
                            fill="#ea615e"></path>
                        <path
                            d="M29.83 48.37a86.36 86.36 0 0 1-.36-32.21A85 85 0 0 1 32.93 3a50.11 50.11 0 0 0-18.4 11.77 35.57 35.57 0 0 0 15.3 33.61zM38.39 33.09A46.11 46.11 0 0 1 71.86 5 49.72 49.72 0 0 0 50 0c-1.71 0-3.4.09-5.07.25a73.35 73.35 0 0 0-6.54 32.84z"
                            fill="#42b4e8"></path>
                        <path
                            d="M48.37 70.17a86.36 86.36 0 0 1-32.21.36A86.14 86.14 0 0 1 3 67.07a50.11 50.11 0 0 0 11.77 18.4 35.57 35.57 0 0 0 33.61-15.3zM33.09 61.61A46.11 46.11 0 0 1 5 28.14 49.86 49.86 0 0 0 0 50c0 1.71.09 3.4.25 5.07a73.48 73.48 0 0 0 32.84 6.54z"
                            fill="#f6b62e"></path>
                        <path
                            d="M70.17 51.63a86.35 86.35 0 0 1 .36 32.21A86.14 86.14 0 0 1 67.07 97a50.11 50.11 0 0 0 18.4-11.77 35.57 35.57 0 0 0-15.3-33.61zM61.61 66.91A46.11 46.11 0 0 1 28.14 95 49.89 49.89 0 0 0 50 100c1.71 0 3.4-.09 5.07-.25a73.48 73.48 0 0 0 6.54-32.84z"
                            fill="#6dba52"></path>
                    </svg></svg> <!---->
            </g>
        </g>
        <g transform="translate(67,2.50103759765625)">
            <g data-gra="path-name" fill-rule="" class="tp-name iconsvg-namesvg">
                <g transform="scale(1)">
                    <g>
                        <path
                            d="M34.28 0.29C30.56 3.31 27.04 5.51 23.73 6.88 20.42 8.26 17.37 8.91 14.59 8.82 12.74 8.76 11.07 8.41 9.58 7.76 8.09 7.15 6.83 6.27 5.77 5.19 4.72 4.1 3.9 2.78 3.28 1.26 2.67-0.26 2.31-1.96 2.23-3.81 2.08-6.33 2.29-8.79 2.81-11.16 3.31-13.54 4.07-15.79 5.1-17.96 6.12-20.13 7.32-22.18 8.76-24.11 10.2-26.04 11.75-27.83 13.42-29.44 15.09-31.05 16.82-32.52 18.66-33.81 20.48-35.07 22.29-36.15 24.11-37 25.93-37.85 27.71-38.5 29.44-38.94 31.17-39.35 32.75-39.49 34.22-39.4 35.19-39.32 36.12-39.11 37-38.79 37.88-38.44 38.64-37.97 39.29-37.38 39.93-36.77 40.43-36.06 40.78-35.24 41.13-34.42 41.28-33.49 41.19-32.46 41.1-31.29 40.84-30.23 40.37-29.33 39.87-28.39 39.26-27.57 38.53-26.87 37.79-26.13 36.94-25.52 35.98-25.02 35.01-24.52 34.01-24.11 32.96-23.82 31.9-23.5 30.85-23.29 29.77-23.17 28.68-23.03 27.63-23 26.63-23.03 26.07-23.06 25.63-22.88 25.34-22.56 25.05-22.21 24.9-21.83 24.87-21.42 24.84-20.98 24.93-20.6 25.2-20.21 25.46-19.83 25.87-19.66 26.43-19.63 27.74-19.54 29.09-19.6 30.47-19.8 31.85-19.98 33.22-20.3 34.54-20.74 35.86-21.18 37.09-21.74 38.26-22.44 39.43-23.12 40.49-23.94 41.4-24.9 42.3-25.87 43.04-26.95 43.59-28.18 44.15-29.38 44.5-30.73 44.59-32.23 44.68-33.84 44.47-35.27 43.92-36.56 43.36-37.85 42.6-38.96 41.6-39.87 40.61-40.78 39.43-41.48 38.06-41.98 36.68-42.48 35.24-42.74 33.69-42.77 31.38-42.8 28.95-42.39 26.34-41.54 23.73-40.66 21.12-39.4 18.54-37.79 15.94-36.18 13.48-34.22 11.1-31.93 8.73-29.62 6.62-27.07 4.8-24.26 2.99-21.42 1.55-18.37 0.47-15.12-0.62-11.84-1.17-8.41-1.17-4.83-1.17-2.4-0.82-0.18-0.09 1.88 0.64 3.93 1.67 5.71 3.02 7.21 4.37 8.7 6.01 9.9 7.94 10.78 9.87 11.66 12.07 12.13 14.5 12.22 17.7 12.3 21.12 11.63 24.81 10.14 28.51 8.64 32.37 6.24 36.45 2.9 36.83 2.58 37.03 2.2 37.06 1.76 37.09 1.32 36.97 0.91 36.68 0.53 36.36 0.15 35.98-0.06 35.54-0.12 35.1-0.15 34.66-0.03 34.28 0.29ZM49.75-35.54L36.56-2.2C36.45-1.93 36.42-1.67 36.45-1.41 36.47-1.14 36.59-0.91 36.74-0.7 36.88-0.5 37.06-0.32 37.29-0.21 37.5-0.06 37.76 0 38.06 0 38.38 0 38.67-0.09 38.94-0.26 39.2-0.44 39.4-0.67 39.52-1 39.99-2.17 40.43-3.34 40.87-4.48 41.28-5.63 41.72-6.74 42.16-7.88 42.6-9.02 43.1-10.14 43.59-11.25 44.09-12.33 44.68-13.42 45.32-14.47 46.11-15.79 47.02-17.02 48.02-18.13 48.34-18.49 48.69-18.87 49.13-19.25 49.57-19.63 50.01-19.95 50.51-20.21 51.01-20.48 51.5-20.65 52.03-20.74 52.56-20.83 53.09-20.77 53.61-20.57 54.05-20.39 54.38-20.16 54.58-19.86 54.79-19.54 54.93-19.22 54.99-18.84 55.02-18.46 55.02-18.05 54.93-17.64 54.84-17.23 54.76-16.85 54.61-16.46 54.29-15.67 53.91-14.79 53.47-13.86 53-12.92 52.56-11.95 52.12-10.99 51.68-10.02 51.33-9.05 51.04-8.09 50.74-7.12 50.6-6.24 50.63-5.42 50.65-4.66 50.8-3.96 51.06-3.34 51.33-2.7 51.68-2.14 52.15-1.7 52.62-1.23 53.17-0.88 53.82-0.62 54.46-0.35 55.17-0.23 55.9-0.23 56.98-0.23 57.95-0.5 58.8-1.05 59.65-1.61 60.44-2.31 61.17-3.16 61.88-4.01 62.52-4.95 63.11-5.98 63.66-7 64.19-8.03 64.69-8.99 65.07-9.73 65.39-10.34 65.65-10.84 65.83-11.16 65.89-11.51 65.8-11.87 65.71-12.19 65.48-12.45 65.16-12.66 64.83-12.83 64.48-12.89 64.16-12.8 63.81-12.71 63.54-12.48 63.34-12.16 63.16-11.84 62.99-11.51 62.81-11.19 62.64-10.87 62.46-10.55 62.31-10.22 62.05-9.7 61.7-9.02 61.29-8.2 60.85-7.38 60.38-6.59 59.82-5.83 59.27-5.04 58.65-4.39 58.01-3.84 57.33-3.28 56.66-3.02 55.93-3.02 55.31-3.02 54.79-3.25 54.38-3.69 53.94-4.13 53.7-4.69 53.67-5.42 53.67-5.71 53.76-6.12 53.91-6.62 54.05-7.12 54.26-7.71 54.52-8.32 54.76-8.94 55.02-9.61 55.34-10.28 55.63-10.96 55.93-11.63 56.22-12.28 56.51-12.89 56.78-13.48 57.04-14.03 57.28-14.56 57.45-15 57.6-15.35 58.1-16.7 58.27-17.93 58.15-19.07 58.01-20.13 57.66-21.06 57.1-21.86 56.51-22.65 55.72-23.2 54.7-23.58 53.79-23.91 52.82-24.02 51.77-23.91 51.21-23.85 50.63-23.7 50.04-23.5 49.72-23.41 49.45-23.41 49.31-23.5 49.13-23.58 49.01-23.7 48.96-23.91 48.9-24.08 48.9-24.29 48.93-24.55 48.96-24.79 49.04-25.02 49.13-25.22 49.48-26.1 49.86-27.07 50.3-28.13 50.74-29.18 51.15-30.21 51.53-31.2 51.91-32.2 52.27-33.11 52.59-33.96 52.91-34.78 53.12-35.42 53.26-35.86 53.41-36.36 53.35-36.8 53.06-37.12 52.73-37.44 52.27-37.59 51.62-37.59 51.3-37.59 51.06-37.53 50.86-37.41 50.65-37.27 50.48-37.12 50.36-36.91 50.21-36.71 50.13-36.5 50.04-36.27 49.95-36.01 49.83-35.77 49.75-35.54ZM79.63-22.44C79.45-22.21 79.28-22.06 79.07-22.03 78.87-22 78.63-22 78.43-22.09 78.22-22.15 78.02-22.24 77.84-22.35 77.67-22.47 77.52-22.59 77.4-22.68 76.79-23.17 76.14-23.55 75.53-23.76 74.91-23.96 74.27-24.08 73.65-24.05 72.51-24.02 71.43-23.76 70.43-23.23 69.4-22.71 68.5-22 67.68-21.15 66.83-20.27 66.09-19.28 65.45-18.16 64.8-17.02 64.25-15.88 63.81-14.71 63.37-13.51 63.02-12.33 62.78-11.19 62.55-10.02 62.43-8.96 62.43-8 62.43-7.12 62.52-6.21 62.72-5.27 62.93-4.31 63.25-3.46 63.72-2.67 64.16-1.88 64.78-1.26 65.51-0.76 66.24-0.26 67.12 0 68.2 0 69.02 0 69.81-0.18 70.61-0.5 71.37-0.82 72.13-1.32 72.89-1.93 73.27-2.26 73.71-2.4 74.18-2.37 74.62-2.31 75.03-2.11 75.35-1.76 76.11-0.97 77.02-0.47 78.11-0.29 79.31-0.09 80.42-0.26 81.39-0.76 82.35-1.26 83.2-1.93 83.99-2.81 84.79-3.69 85.49-4.69 86.1-5.8 86.72-6.88 87.3-7.97 87.83-8.99 88.21-9.73 88.54-10.34 88.8-10.84 88.97-11.16 89-11.51 88.92-11.87 88.83-12.22 88.62-12.48 88.3-12.66 87.98-12.86 87.63-12.89 87.3-12.8 86.95-12.71 86.69-12.48 86.48-12.16 86.31-11.84 86.13-11.51 85.96-11.19 85.78-10.87 85.61-10.55 85.46-10.22 85.02-9.38 84.55-8.53 84.05-7.62 83.55-6.71 83-5.89 82.44-5.16 81.86-4.42 81.24-3.84 80.6-3.4 79.92-2.96 79.25-2.81 78.52-2.93 78.16-3.02 77.87-3.13 77.67-3.28 77.43-3.43 77.23-3.66 77.02-3.98 76.76-4.48 76.67-5.13 76.79-5.89 76.85-6.27 78.9-11.57 82.94-21.77 83.09-22.18 83.09-22.59 82.91-23 82.73-23.38 82.44-23.67 82.03-23.85 81.83-23.94 81.65-23.99 81.47-23.99 81.27-23.96 81.09-23.94 80.92-23.88 80.71-23.79 80.54-23.64 80.33-23.41 80.13-23.14 79.89-22.82 79.63-22.44ZM75.56-12.42C74.71-9.64 73.51-7.35 72.01-5.57 71.4-4.83 70.75-4.25 70.11-3.84 69.43-3.4 68.82-3.19 68.2-3.19 67.68-3.19 67.24-3.37 66.91-3.72 66.56-4.07 66.3-4.51 66.12-5.01 65.92-5.51 65.8-6.04 65.74-6.59 65.65-7.15 65.63-7.62 65.63-8 65.63-8.58 65.71-9.35 65.92-10.25 66.12-11.16 66.39-12.13 66.77-13.13 67.12-14.12 67.56-15.12 68.09-16.11 68.61-17.08 69.2-17.96 69.84-18.69 70.49-19.42 71.19-19.98 71.95-20.36 72.69-20.74 73.48-20.83 74.33-20.63 74.91-20.48 75.32-20.27 75.59-19.98 75.97-19.54 76.2-18.98 76.29-18.31 76.38-17.64 76.41-16.93 76.35-16.2 76.26-15.47 76.14-14.77 76-14.09 75.82-13.42 75.67-12.86 75.56-12.42ZM90.23-22.32C90.15-22.12 90-21.8 89.85-21.36 89.68-20.92 89.41-20.27 89.06-19.42 88.8-18.78 88.48-17.99 88.1-17.05 87.71-16.11 87.36-15.12 87.01-14.03 86.63-12.95 86.31-11.81 86.02-10.66 85.72-9.49 85.52-8.35 85.4-7.27 85.28-6.15 85.28-5.1 85.37-4.13 85.46-3.16 85.75-2.31 86.19-1.61 86.81-0.64 87.69-0.12 88.83 0 90.29 0.15 91.73-0.41 93.16-1.67 94.01-2.43 94.8-3.28 95.51-4.25 96.21-5.19 96.88-6.15 97.5-7.12 97.71-7.5 97.88-7.73 98.03-7.88 98.17-8 98.29-8.06 98.41-8.09 98.55-8.09 98.7-8.03 98.82-7.91 98.94-7.79 99.02-7.68 99.11-7.59 99.46-7.12 99.84-6.74 100.28-6.47 100.69-6.18 101.19-5.98 101.78-5.89 103.15-5.63 104.5-5.92 105.82-6.83 106.55-7.32 107.2-7.94 107.72-8.67 108.25-9.38 108.75-10.11 109.19-10.84 109.37-11.16 109.39-11.51 109.31-11.87 109.22-12.19 108.98-12.45 108.63-12.66 108.31-12.83 107.96-12.86 107.64-12.77 107.31-12.69 107.05-12.45 106.88-12.13 106.64-11.75 106.38-11.31 106.08-10.87 105.76-10.4 105.41-9.99 105.03-9.61 104.65-9.23 104.21-8.91 103.77-8.7 103.3-8.47 102.8-8.41 102.28-8.5 101.89-8.55 101.57-8.73 101.37-8.99 101.16-9.26 101.02-9.55 100.93-9.9 100.84-10.22 100.78-10.61 100.78-10.99 100.78-11.37 100.81-11.69 100.84-11.98 100.93-12.48 101.16-13.13 101.51-13.92 101.87-14.71 102.28-15.53 102.71-16.38 103.15-17.23 103.59-18.08 104.06-18.87 104.5-19.66 104.88-20.33 105.18-20.86 105.62-21.59 105.79-22.21 105.7-22.68 105.62-23.12 105.38-23.47 105-23.7 104.62-23.91 104.21-23.99 103.83-23.91 103.42-23.82 103.1-23.55 102.83-23.17 102.01-21.77 101.13-20.13 100.17-18.28 99.84-17.67 99.46-16.93 99.05-16.14 98.61-15.32 98.17-14.47 97.68-13.59 97.18-12.69 96.65-11.78 96.09-10.87 95.54-9.96 94.95-9.08 94.39-8.23 93.84-7.38 93.25-6.62 92.7-5.89 92.14-5.16 91.58-4.57 91.05-4.07 90.35-3.4 89.79-3.11 89.38-3.13 88.89-3.16 88.59-3.49 88.51-4.16 88.42-4.8 88.42-5.63 88.56-6.62 88.71-7.59 88.95-8.67 89.27-9.87 89.59-11.07 89.91-12.22 90.26-13.33 90.62-14.41 90.97-15.41 91.29-16.32 91.61-17.2 91.85-17.81 91.99-18.19 92.23-18.75 92.46-19.28 92.67-19.83 92.87-20.39 93.11-20.92 93.34-21.47 93.54-22.03 93.57-22.53 93.43-22.94 93.28-23.35 92.99-23.64 92.58-23.79 92.14-23.96 91.73-23.94 91.32-23.73 90.91-23.53 90.56-23.06 90.23-22.32ZM110.77-22.94C110.21-21.5 109.69-20.21 109.25-19.04 108.78-17.87 108.31-16.73 107.87-15.62 107.43-14.5 106.96-13.36 106.52-12.19 106.05-11.02 105.53-9.73 104.97-8.29 104.59-7.29 104.41-6.3 104.47-5.3 104.53-4.31 104.79-3.43 105.23-2.67 105.67-1.88 106.32-1.26 107.14-0.82 107.96-0.35 108.96-0.18 110.1-0.26 111.12-0.29 112.06-0.62 112.91-1.17 113.76-1.73 114.52-2.46 115.22-3.31 115.9-4.16 116.54-5.07 117.1-6.09 117.66-7.09 118.18-8.06 118.65-8.99 118.86-9.38 119.03-9.7 119.18-10.02 119.33-10.34 119.47-10.61 119.62-10.87 119.79-11.19 119.82-11.54 119.74-11.87 119.65-12.19 119.44-12.45 119.12-12.66 118.8-12.86 118.45-12.89 118.1-12.8 117.74-12.71 117.48-12.51 117.3-12.19 117.1-11.87 116.92-11.54 116.78-11.22 116.6-10.9 116.43-10.58 116.28-10.25 115.87-9.46 115.43-8.61 114.96-7.76 114.46-6.91 113.96-6.12 113.44-5.39 112.88-4.66 112.32-4.07 111.71-3.6 111.09-3.13 110.48-2.9 109.8-2.9 109.22-2.9 108.75-3.05 108.43-3.37 108.11-3.66 107.87-4.04 107.75-4.48 107.64-4.92 107.61-5.39 107.67-5.92 107.72-6.42 107.84-6.88 108.02-7.29 108.57-8.7 109.1-9.99 109.57-11.16 110.01-12.3 110.48-13.45 110.92-14.53 111.36-15.62 111.8-16.76 112.24-17.93 112.68-19.07 113.2-20.36 113.76-21.77 113.91-22.21 113.91-22.62 113.73-23.03 113.55-23.41 113.26-23.7 112.85-23.85 112.41-24.02 112-24.02 111.62-23.85 111.24-23.67 110.95-23.38 110.77-22.94ZM114.81-30.76C114.26-30.76 113.76-30.56 113.32-30.18 112.88-29.77 112.65-29.27 112.62-28.68 112.59-28.1 112.73-27.6 113.12-27.22 113.5-26.84 113.96-26.63 114.52-26.63 115.08-26.63 115.58-26.84 116.02-27.22 116.46-27.6 116.69-28.1 116.72-28.68 116.75-29.27 116.6-29.77 116.22-30.18 115.84-30.56 115.37-30.76 114.81-30.76Z"
                            transform="translate(1.1700000762939453, 42.77153396606445)"></path>
                    </g> <!----> <!----> <!----> <!----> <!----> <!----> <!---->
                </g>
            </g> <!---->
        </g>
    </g>
    <defs v-gra="od"></defs>
</svg>