<svg xmlns="http://www.w3.org/2000/svg"
    viewBox="-0.009164804592728615 0.001775503158569336 114.5261001586914 123.44318389892578">
    <title>DecodeX</title>
    <path
        d="M114.49 61.82v27.74a5.2 5.2 0 0 1-2.41 4.88c-9.07 5.71-18.23 11.27-27.21 17.1-5.65 3.67-11.31 7.32-17 10.87-2.15 1.32-3.27.85-3.31-1.74-.09-5.83 0-11.66 0-17.49 0-1.85 1.36-2.59 2.59-3.39 8.8-5.68 17.58-11.39 26.47-16.9A4.83 4.83 0 0 0 96 78.15V42.91 23.66c0-1.23-.2-2.63 1.18-3.31s2.15.43 3.11 1c3.76 2.44 7.51 4.9 11.32 7.26a5.92 5.92 0 0 1 2.88 5.66c-.08 9.17 0 18.33 0 27.5zM50.49 11.28a54.56 54.56 0 0 0 0 6c.37 3.38-1.22 5.36-4 7.07-8.59 5.41-17.11 11.07-25.77 16.49-1.88 1.17-2.23 2.63-2.22 4.58v53c0 5.64-.09 5.77-4.8 3C9.73 99 5.92 96.31 2 93.81a4 4 0 0 1-2-3.74c0-17.66 0-35.33.05-53a43.82 43.82 0 0 1 .51-5 4.29 4.29 0 0 1 2.37-3l33.64-21.4c3.37-2.13 6.8-4.16 10.06-6.49 2.2-1.58 3.79-.67 3.85 2.1s.01 5.33.01 8z"
        fill="#000000" />
    <path
        d="M50.49 82v38c0 1.12.35 2.46-.88 3.18s-2.18-.19-3.17-.8q-6.36-3.93-12.76-7.79a4 4 0 0 1-2.17-3.65V52.49a3.6 3.6 0 0 1 1.88-3.29c4.29-2.75 8.61-5.49 12.85-8.2 1-.61 2.07-1.49 3.2-.94s1 2 1 3.14q.06 19.4.05 38.8zM64.52 41.61v-37a18.57 18.57 0 0 1 0-2.24C64.82.21 66.29-.68 68 .58a154.51 154.51 0 0 0 13.35 8.34A2.44 2.44 0 0 1 82.51 11c.15 1.91.45 3.81.45 5.72 0 17.49 0 35 .08 52.47a6 6 0 0 1-3 5.56q-6.21 3.94-12.44 7.85c-1.65 1-2.69.61-3-1.28a16.62 16.62 0 0 1-.1-2.74v-37z"
        fill="#000000" />
</svg>