<svg data-v-6805eed4="" version="1.0" xmlns="http://www.w3.org/2000/svg"
    xmlns:xlink="http://www.w3.org/1999/xlink" width="100%" height="100%"
    viewBox="0 0 340.000000 250.000000" preserveAspectRatio="xMidYMid meet"
    color-interpolation-filters="sRGB" style="margin: auto;">
    <rect data-v-6805eed4="" x="0" y="0" width="100%" height="100%" fill="#CBAA25" fill-opacity="1"
        class="background"></rect>
    <g data-v-6805eed4="" fill="#1c085d" class="j-b-g-c iconbgsvg"
        mask="url(#997e7733-f7c7-4a1a-b556-4512742f322a)" transform="translate(82.5,37.5)">
        <g data-d="container" transform="translate(0,0)">
            <g>
                <rect fill="#1c085d" fill-opacity="0" stroke-width="2" x="0" y="0" width="175"
                    height="175" class="image-rect"></rect>
                <svg filter="url(#colors4812050403)" x="0" y="0" width="175" height="175"
                    filtersec="colorsf8255600056" class="image-svg-container primary"
                    style="overflow: visible;">
                    <svg xmlns="http://www.w3.org/2000/svg" viewBox="0 0 60 60"
                        style="overflow: visible;">
                        <g transform="scale(1, 1) skewX(0)">
                            <title>96 - Rounded (Solid)</title>
                            <path
                                d="M49.001 0H10.999C4.934 0 0 4.934 0 10.999v38.002C0 55.066 4.934 60 10.999 60h38.002C55.065 60 60 55.066 60 49.001V10.999C60 4.934 55.065 0 49.001 0"
                                fill="#000" fill-rule="evenodd"></path>
                        </g>
                    </svg>
                </svg>
                <defs>
                    <filter id="colors4812050403">
                        <feColorMatrix type="matrix"
                            values="0 0 0 0 0.26171875  0 0 0 0 0.08203125  0 0 0 0 0.375  0 0 0 1 0"
                            class="icon-fecolormatrix"></feColorMatrix>
                    </filter>
                    <filter id="colorsf8255600056">
                        <feColorMatrix type="matrix"
                            values="0 0 0 0 0.99609375  0 0 0 0 0.99609375  0 0 0 0 0.99609375  0 0 0 1 0"
                            class="icon-fecolormatrix"></feColorMatrix>
                    </filter>
                    <filter id="colorsb6852504047">
                        <feColorMatrix type="matrix"
                            values="0 0 0 0 0  0 0 0 0 0  0 0 0 0 0  0 0 0 1 0"
                            class="icon-fecolormatrix"></feColorMatrix>
                    </filter>
                </defs>
            </g>
        </g>
        <g data-d="icon-text" hollow-target="textRect"
            transform="translate(57.5,55.164180755615234)">
            <g data-d="icon" class="iconsvg-imagesvg" transform="translate(0,0)">
                <g><!---->
                    <svg filter="url(#colors9414102496)" x="0" y="0" width="59.99999999999999"
                        height="64.6718979046305" filtersec="colorsf3043913932"
                        class="image-svg-svg primary" style="overflow: visible;">
                        <svg xmlns="http://www.w3.org/2000/svg"
                            viewBox="-0.009164804592728615 0.001775503158569336 114.5261001586914 123.44318389892578">
                            <title>N4Ltrh.tif</title>
                            <path
                                d="M114.49 61.82v27.74a5.2 5.2 0 0 1-2.41 4.88c-9.07 5.71-18.23 11.27-27.21 17.1-5.65 3.67-11.31 7.32-17 10.87-2.15 1.32-3.27.85-3.31-1.74-.09-5.83 0-11.66 0-17.49 0-1.85 1.36-2.59 2.59-3.39 8.8-5.68 17.58-11.39 26.47-16.9A4.83 4.83 0 0 0 96 78.15V42.91 23.66c0-1.23-.2-2.63 1.18-3.31s2.15.43 3.11 1c3.76 2.44 7.51 4.9 11.32 7.26a5.92 5.92 0 0 1 2.88 5.66c-.08 9.17 0 18.33 0 27.5zM50.49 11.28a54.56 54.56 0 0 0 0 6c.37 3.38-1.22 5.36-4 7.07-8.59 5.41-17.11 11.07-25.77 16.49-1.88 1.17-2.23 2.63-2.22 4.58v53c0 5.64-.09 5.77-4.8 3C9.73 99 5.92 96.31 2 93.81a4 4 0 0 1-2-3.74c0-17.66 0-35.33.05-53a43.82 43.82 0 0 1 .51-5 4.29 4.29 0 0 1 2.37-3l33.64-21.4c3.37-2.13 6.8-4.16 10.06-6.49 2.2-1.58 3.79-.67 3.85 2.1s.01 5.33.01 8z"
                                fill="#000000"></path>
                            <path
                                d="M50.49 82v38c0 1.12.35 2.46-.88 3.18s-2.18-.19-3.17-.8q-6.36-3.93-12.76-7.79a4 4 0 0 1-2.17-3.65V52.49a3.6 3.6 0 0 1 1.88-3.29c4.29-2.75 8.61-5.49 12.85-8.2 1-.61 2.07-1.49 3.2-.94s1 2 1 3.14q.06 19.4.05 38.8zM64.52 41.61v-37a18.57 18.57 0 0 1 0-2.24C64.82.21 66.29-.68 68 .58a154.51 154.51 0 0 0 13.35 8.34A2.44 2.44 0 0 1 82.51 11c.15 1.91.45 3.81.45 5.72 0 17.49 0 35 .08 52.47a6 6 0 0 1-3 5.56q-6.21 3.94-12.44 7.85c-1.65 1-2.69.61-3-1.28a16.62 16.62 0 0 1-.1-2.74v-37z"
                                fill="#000000"></path>
                        </svg>
                    </svg>
                    <defs>
                        <filter id="colors9414102496">
                            <feColorMatrix type="matrix"
                                values="0 0 0 0 0.109375  0 0 0 0 0.03125  0 0 0 0 0.36328125  0 0 0 1 0"
                                class="icon-fecolormatrix"></feColorMatrix>
                        </filter>
                        <filter id="colorsf3043913932">
                            <feColorMatrix type="matrix"
                                values="0 0 0 0 0.99609375  0 0 0 0 0.99609375  0 0 0 0 0.99609375  0 0 0 1 0"
                                class="icon-fecolormatrix"></feColorMatrix>
                        </filter>
                        <filter id="colorsb3216314235">
                            <feColorMatrix type="matrix"
                                values="0 0 0 0 0  0 0 0 0 0  0 0 0 0 0  0 0 0 1 0"
                                class="icon-fecolormatrix"></feColorMatrix>
                        </filter>
                    </defs>
                </g>
            </g>
            <g data-d="text" transform="translate(30,71.67163848876953)">
                <g data-gra="path-name" fill-rule="" class="tp-name iconsvg-namesvg">
                    <g transform="scale(1)">
                        <g>
                            <path d="" transform="translate(0, 0)"></path>
                        </g> <!----> <!----> <!----> <!----> <!----> <!----> <!---->
                    </g>
                </g> <!---->
            </g>
        </g>
    </g>
    <defs>
        <filter id="c9aa1190-5ab0-4e6a-8d77-6d2705dcc8ad">
            <feColorMatrix type="matrix" values="0 0 0 0 0  0 0 0 0 0  0 0 0 0 0  0 0 0 1 0"></feColorMatrix>
        </filter>
        <filter id="449dd106-0779-4ac7-8022-2f0c5314bd93">
            <feColorMatrix type="matrix"
                values="0 0 0 0 0.99609375  0 0 0 0 0.99609375  0 0 0 0 0.99609375  0 0 0 1 0"></feColorMatrix>
        </filter>
    </defs>
    <mask id="997e7733-f7c7-4a1a-b556-4512742f322a">
        <g data-v-6805eed4="" fill="#1c085d" class="j-b-g-c iconbgsvg">
            <g data-d="container" transform="translate(0,0)">
                <g>
                    <rect fill="#1c085d" fill-opacity="0" stroke-width="2" x="0" y="0" width="175"
                        height="175" class="image-rect" stroke="#000"></rect>
                    <svg filter="url(#449dd106-0779-4ac7-8022-2f0c5314bd93)" x="0" y="0" width="175"
                        height="175" filtersec="colorsf8255600056"
                        class="image-svg-container primary" style="overflow: visible;">
                        <svg xmlns="http://www.w3.org/2000/svg" viewBox="0 0 60 60"
                            style="overflow: visible;">
                            <g transform="scale(1, 1) skewX(0)">
                                <title>96 - Rounded (Solid)</title>
                                <path
                                    d="M49.001 0H10.999C4.934 0 0 4.934 0 10.999v38.002C0 55.066 4.934 60 10.999 60h38.002C55.065 60 60 55.066 60 49.001V10.999C60 4.934 55.065 0 49.001 0"
                                    fill="#000" fill-rule="evenodd"></path>
                            </g>
                        </svg>
                    </svg>
                    <defs>
                        <filter id="colors4812050403">
                            <feColorMatrix type="matrix"
                                values="0 0 0 0 0.26171875  0 0 0 0 0.08203125  0 0 0 0 0.375  0 0 0 1 0"
                                class="icon-fecolormatrix"></feColorMatrix>
                        </filter>
                        <filter id="colorsf8255600056">
                            <feColorMatrix type="matrix"
                                values="0 0 0 0 0.99609375  0 0 0 0 0.99609375  0 0 0 0 0.99609375  0 0 0 1 0"
                                class="icon-fecolormatrix"></feColorMatrix>
                        </filter>
                        <filter id="colorsb6852504047">
                            <feColorMatrix type="matrix"
                                values="0 0 0 0 0  0 0 0 0 0  0 0 0 0 0  0 0 0 1 0"
                                class="icon-fecolormatrix"></feColorMatrix>
                        </filter>
                    </defs>
                </g>
            </g>
            <g data-d="icon-text" hollow-target="textRect"
                transform="translate(57.5,55.164180755615234)"
                filter="url(#c9aa1190-5ab0-4e6a-8d77-6d2705dcc8ad)">
                <g data-d="icon" class="iconsvg-imagesvg" transform="translate(0,0)">
                    <g><!---->
                        <svg filter="url(#colors9414102496)" x="0" y="0" width="59.99999999999999"
                            height="64.6718979046305" filtersec="colorsf3043913932"
                            class="image-svg-svg primary" style="overflow: visible;">
                            <svg xmlns="http://www.w3.org/2000/svg"
                                viewBox="-0.009164804592728615 0.001775503158569336 114.5261001586914 123.44318389892578"
                                style="overflow: visible;">
                                <title>N4Ltrh.tif</title>
                                <path
                                    d="M114.49 61.82v27.74a5.2 5.2 0 0 1-2.41 4.88c-9.07 5.71-18.23 11.27-27.21 17.1-5.65 3.67-11.31 7.32-17 10.87-2.15 1.32-3.27.85-3.31-1.74-.09-5.83 0-11.66 0-17.49 0-1.85 1.36-2.59 2.59-3.39 8.8-5.68 17.58-11.39 26.47-16.9A4.83 4.83 0 0 0 96 78.15V42.91 23.66c0-1.23-.2-2.63 1.18-3.31s2.15.43 3.11 1c3.76 2.44 7.51 4.9 11.32 7.26a5.92 5.92 0 0 1 2.88 5.66c-.08 9.17 0 18.33 0 27.5zM50.49 11.28a54.56 54.56 0 0 0 0 6c.37 3.38-1.22 5.36-4 7.07-8.59 5.41-17.11 11.07-25.77 16.49-1.88 1.17-2.23 2.63-2.22 4.58v53c0 5.64-.09 5.77-4.8 3C9.73 99 5.92 96.31 2 93.81a4 4 0 0 1-2-3.74c0-17.66 0-35.33.05-53a43.82 43.82 0 0 1 .51-5 4.29 4.29 0 0 1 2.37-3l33.64-21.4c3.37-2.13 6.8-4.16 10.06-6.49 2.2-1.58 3.79-.67 3.85 2.1s.01 5.33.01 8z"
                                    fill="#000000"></path>
                                <path
                                    d="M50.49 82v38c0 1.12.35 2.46-.88 3.18s-2.18-.19-3.17-.8q-6.36-3.93-12.76-7.79a4 4 0 0 1-2.17-3.65V52.49a3.6 3.6 0 0 1 1.88-3.29c4.29-2.75 8.61-5.49 12.85-8.2 1-.61 2.07-1.49 3.2-.94s1 2 1 3.14q.06 19.4.05 38.8zM64.52 41.61v-37a18.57 18.57 0 0 1 0-2.24C64.82.21 66.29-.68 68 .58a154.51 154.51 0 0 0 13.35 8.34A2.44 2.44 0 0 1 82.51 11c.15 1.91.45 3.81.45 5.72 0 17.49 0 35 .08 52.47a6 6 0 0 1-3 5.56q-6.21 3.94-12.44 7.85c-1.65 1-2.69.61-3-1.28a16.62 16.62 0 0 1-.1-2.74v-37z"
                                    fill="#000000"></path>
                            </svg>
                        </svg>
                        <defs>
                            <filter id="colors9414102496">
                                <feColorMatrix type="matrix"
                                    values="0 0 0 0 0.109375  0 0 0 0 0.03125  0 0 0 0 0.36328125  0 0 0 1 0"
                                    class="icon-fecolormatrix"></feColorMatrix>
                            </filter>
                            <filter id="colorsf3043913932">
                                <feColorMatrix type="matrix"
                                    values="0 0 0 0 0.99609375  0 0 0 0 0.99609375  0 0 0 0 0.99609375  0 0 0 1 0"
                                    class="icon-fecolormatrix"></feColorMatrix>
                            </filter>
                            <filter id="colorsb3216314235">
                                <feColorMatrix type="matrix"
                                    values="0 0 0 0 0  0 0 0 0 0  0 0 0 0 0  0 0 0 1 0"
                                    class="icon-fecolormatrix"></feColorMatrix>
                            </filter>
                        </defs>
                    </g>
                </g>
                <g data-d="text" transform="translate(30,71.67163848876953)">
                    <g data-gra="path-name" fill-rule="" class="tp-name iconsvg-namesvg">
                        <g transform="scale(1)">
                            <g>
                                <path d="" transform="translate(0, 0)"></path>
                            </g> <!----> <!----> <!----> <!----> <!----> <!----> <!---->
                        </g>
                    </g> <!---->
                </g>
            </g>
        </g>
    </mask>
    <defs v-gra="od"></defs>
</svg>